<svg xmlns="http://www.w3.org/2000/svg" width="300" height="400" viewBox="0 0 300 400">
  <rect width="300" height="400" fill="#1a1a1a" rx="14" ry="14"/>
  <rect width="298" height="398" x="1" y="1" fill="none" stroke="rgba(255,255,255,0.03)" stroke-width="1" rx="13" ry="13"/>

  <g transform="translate(150, 170)" fill="rgba(255,255,255,0.1)">
    <rect x="-50" y="-20" width="100" height="45" rx="10" ry="10"/>
    <rect x="-55" y="5" width="30" height="35" rx="8" ry="8"/>
    <rect x="25" y="5" width="30" height="35" rx="8" ry="8"/>
    <rect x="-32" y="-8" width="14" height="4" rx="1" fill="rgba(255,255,255,0.15)"/>
    <rect x="-30" y="-13" width="4" height="14" rx="1" fill="rgba(255,255,255,0.15)" transform="translate(5,0)"/>
    <circle cx="28" cy="-6" r="3" fill="rgba(255,255,255,0.15)"/>
    <circle cx="22" cy="0" r="3" fill="rgba(255,255,255,0.15)"/>
    <circle cx="34" cy="0" r="3" fill="rgba(255,255,255,0.15)"/>
    <circle cx="28" cy="6" r="3" fill="rgba(255,255,255,0.15)"/>
    <circle cx="-20" cy="12" r="6" fill="rgba(255,255,255,0.05)" stroke="rgba(255,255,255,0.1)" stroke-width="1.5"/>
    <circle cx="15" cy="12" r="6" fill="rgba(255,255,255,0.05)" stroke="rgba(255,255,255,0.1)" stroke-width="1.5"/>
  </g>

  <text x="150" y="250" text-anchor="middle" font-family="Segoe UI, Arial, sans-serif" font-size="16" font-weight="700" fill="rgba(255,255,255,0.12)" letter-spacing="3">NO COVER</text>
</svg>
